<svg width="387" xmlns="http://www.w3.org/2000/svg" height="40" id="screenshot-f2fa685d-86c7-80da-8006-813bab7f581d" viewBox="0 0 387 40" xmlns:xlink="http://www.w3.org/1999/xlink" fill="none" version="1.1"><g id="shape-f2fa685d-86c7-80da-8006-813bab7f581d" rx="0" ry="0"><g id="shape-f2fa685d-86c7-80da-8006-813bab7f581e" rx="0" ry="0"><g id="shape-f2fa685d-86c7-80da-8006-813bab7f5822"><g class="frame-container-wrapper"><g class="frame-container-blur"><g class="frame-container-shadows"><g fill="none"><g class="fills" id="fills-f2fa685d-86c7-80da-8006-813bab7f5822"><rect rx="0" ry="0" x="0" y="8" width="25" height="25" transform="matrix(1.000000, 0.000000, 0.000000, 1.000000, 0.000000, 0.000000)" class="frame-background"/></g><g class="frame-children"><g id="shape-f2fa685d-86c7-80da-8006-813bab7fb992" width="16" height="16" rx="0" ry="0" style="opacity: 0.22; fill: rgb(0, 0, 0);"><g id="shape-f2fa685d-86c7-80da-8006-813bab7fb993" style="display: none;"><g class="fills" id="fills-f2fa685d-86c7-80da-8006-813bab7fb993"><rect width="25" height="25" x="0" transform="matrix(1.000000, 0.000000, 0.000000, 1.000000, 0.000000, 0.000000)" style="fill: none;" ry="0" fill="none" rx="0" y="8"/></g></g><g id="shape-f2fa685d-86c7-80da-8006-813bab7fb994"><g class="fills" id="fills-f2fa685d-86c7-80da-8006-813bab7fb994"><path d="M3.90625,14.25L21.09375,14.25M3.90625,20.5L21.09375,20.5M3.90625,26.75L21.09375,26.75" fill="none" stroke-linecap="round" stroke-linejoin="round" style="fill: none;"/></g><g fill="none" stroke-linecap="round" stroke-linejoin="round" id="strokes-29a13230-f52e-803f-8006-8951c3decbac-f2fa685d-86c7-80da-8006-813bab7fb994" class="strokes"><g class="stroke-shape"><path d="M3.90625,14.25L21.09375,14.25M3.90625,20.5L21.09375,20.5M3.90625,26.75L21.09375,26.75" style="fill: none; stroke-width: 1; stroke: rgb(17, 17, 17); stroke-opacity: 1;"/></g></g></g></g></g></g></g></g></g></g></g><g id="shape-f2fa685d-86c7-80da-8006-813bab7f581f"><g class="frame-container-wrapper"><g class="frame-container-blur"><g class="frame-container-shadows"><g fill="none"><g class="fills" id="fills-f2fa685d-86c7-80da-8006-813bab7f581f"><rect rx="0" ry="0" x="362" y="8" width="25" height="25" transform="matrix(1.000000, 0.000000, 0.000000, 1.000000, 0.000000, 0.000000)" class="frame-background"/></g><g class="frame-children"><g id="shape-f2fa685d-86c7-80da-8006-813bab7fc736" width="24" height="24" rx="0" ry="0" style="opacity: 0.22; fill: rgb(0, 0, 0);"><g id="shape-f2fa685d-86c7-80da-8006-813bab7fc737" style="display: none;"><g class="fills" id="fills-f2fa685d-86c7-80da-8006-813bab7fc737"><rect width="25" height="25" x="362" transform="matrix(1.000000, 0.000000, 0.000000, 1.000000, 0.000000, 0.000000)" style="fill: none;" ry="0" fill="none" rx="0" y="8"/></g></g><g id="shape-f2fa685d-86c7-80da-8006-813bab7fc738"><g class="fills" id="fills-f2fa685d-86c7-80da-8006-813bab7fc738"><path d="M370.33331298828125,15.29168701171875L370.33331298828125,14.25C370.33331298828125,11.948822021484375,372.19879150390625,10.08331298828125,374.5,10.08331298828125C376.80120849609375,10.08331298828125,378.66668701171875,11.948822021484375,378.66668701171875,14.25L378.66668701171875,15.29168701171875L381.79168701171875,15.29168701171875C382.36669921875,15.29168701171875,382.83331298828125,15.7593994140625,382.83331298828125,16.34063720703125L382.83331298828125,28.8416748046875C382.83331298828125,29.98748779296875,381.9010009765625,30.91668701171875,380.7562255859375,30.91668701171875L368.2437744140625,30.91668701171875C367.09747314453125,30.91668701171875,366.16778564453125,29.98797607421875,366.16668701171875,28.8416748046875L366.16668701171875,16.3416748046875C366.16668701171875,15.760406494140625,366.63018798828125,15.29168701171875,367.20831298828125,15.29168701171875ZM371.5833740234375,15.29168701171875L377.4166259765625,15.29168701171875L377.4166259765625,14.25C377.4166259765625,12.63916015625,376.11083984375,11.33331298828125,374.5,11.33331298828125C372.88916015625,11.33331298828125,371.5833740234375,12.63916015625,371.5833740234375,14.25ZM370.33331298828125,16.541656494140625L367.41668701171875,16.541656494140625L367.41668701171875,28.8416748046875C367.41668701171875,29.29583740234375,367.78753662109375,29.66668701171875,368.2437744140625,29.66668701171875L380.7562255859375,29.66668701171875C381.21221923828125,29.66668701171875,381.5821533203125,29.29766845703125,381.58331298828125,28.8416748046875L381.58331298828125,16.541656494140625L378.66668701171875,16.541656494140625L378.66668701171875,19.45831298828125L377.4166259765625,19.45831298828125L377.4166259765625,16.541656494140625L371.5833740234375,16.541656494140625L371.5833740234375,19.45831298828125L370.33331298828125,19.45831298828125Z" fill-rule="evenodd"/></g></g></g></g></g></g></g></g></g><g id="shape-f2fa685d-86c7-80da-8006-813bab7f5820"><g class="frame-container-wrapper"><g class="frame-container-blur"><g class="frame-container-shadows"><g fill="none"><g class="fills" id="fills-f2fa685d-86c7-80da-8006-813bab7f5820"><rect rx="0" ry="0" x="329" y="8" width="25" height="25" transform="matrix(1.000000, 0.000000, 0.000000, 1.000000, 0.000000, 0.000000)" class="frame-background"/></g><g class="frame-children"><g id="shape-f2fa685d-86c7-80da-8006-813bab7fc739" width="24" height="24" rx="0" ry="0" style="opacity: 0.22; fill: rgb(0, 0, 0);"><g id="shape-f2fa685d-86c7-80da-8006-813bab7fc73a" style="display: none;"><g class="fills" id="fills-f2fa685d-86c7-80da-8006-813bab7fc73a"><rect width="25" height="25" x="329" transform="matrix(1.000000, 0.000000, 0.000000, 1.000000, 0.000000, 0.000000)" style="fill: none;" ry="0" fill="none" rx="0" y="8"/></g></g><g id="shape-f2fa685d-86c7-80da-8006-813bab7fc73b"><g class="fills" id="fills-f2fa685d-86c7-80da-8006-813bab7fc73b"><path d="M341.5,12.16668701171875C343.80120849609375,12.16668701171875,345.66668701171875,14.03216552734375,345.66668701171875,16.33331298828125C345.66668701171875,18.634521484375,343.80120849609375,20.5,341.5,20.5C339.19879150390625,20.5,337.33331298828125,18.634521484375,337.33331298828125,16.33331298828125C337.33331298828125,14.03216552734375,339.19879150390625,12.16668701171875,341.5,12.16668701171875M341.5,22.58331298828125C346.1041259765625,22.58331298828125,349.83331298828125,24.447906494140625,349.83331298828125,26.75L349.83331298828125,28.83331298828125L333.16668701171875,28.83331298828125L333.16668701171875,26.75C333.16668701171875,24.447906494140625,336.8958740234375,22.58331298828125,341.5,22.58331298828125"/></g></g></g></g></g></g></g></g></g><g id="shape-f2fa685d-86c7-80da-8006-813bab7f5821" style="opacity: 0.22;"><defs><pattern patternUnits="userSpaceOnUse" x="41.5" y="0" width="40" height="40" id="fill-0-render-15"><g><image id="fill-image-render-15-0" href="http://localhost:6080/assets/by-file-media-id/89fad332-cf98-81af-8006-804899dd8079" preserveAspectRatio="xMidYMid slice" width="40" height="40" opacity="1"/></g></pattern></defs><g class="fills" id="fills-f2fa685d-86c7-80da-8006-813bab7f5821"><rect rx="0" ry="0" x="41.5" y="0" transform="matrix(1.000000, 0.000000, 0.000000, 1.000000, 0.000000, 0.000000)" width="40" height="40" fill="url(#fill-0-render-15)"/></g></g></g></svg>