<svg xmlns="http://www.w3.org/2000/svg" xmlns:xlink="http://www.w3.org/1999/xlink" width="300" zoomAndPan="magnify" viewBox="0 0 224.87999 225" height="300" preserveAspectRatio="xMidYMid meet" version="1.2"><defs><clipPath id="b74bb6b7d2"><path d="M 0 0.0585938 L 224.761719 0.0585938 L 224.761719 224.9375 L 0 224.9375 Z M 0 0.0585938 "/></clipPath><clipPath id="d75a6eb337"><path d="M 21.71875 21.777344 L 203.871094 21.777344 L 203.871094 203.929688 L 21.71875 203.929688 Z M 21.71875 21.777344 "/></clipPath><clipPath id="a2c61621a4"><path d="M 131 38.09375 L 185 38.09375 L 185 121 L 131 121 Z M 131 38.09375 "/></clipPath><clipPath id="9726fe3ebd"><path d="M 40 38.09375 L 134 38.09375 L 134 187 L 40 187 Z M 40 38.09375 "/></clipPath><clipPath id="9a4d1d0537"><path d="M 40 38.09375 L 135 38.09375 L 135 187 L 40 187 Z M 40 38.09375 "/></clipPath></defs><g id="55c71fc526"><g clip-rule="nonzero" clip-path="url(#b74bb6b7d2)"><path style=" stroke:none;fill-rule:nonzero;fill:#ffffff;fill-opacity:1;" d="M 0 0.0585938 L 224.878906 0.0585938 L 224.878906 224.941406 L 0 224.941406 Z M 0 0.0585938 "/><path style=" stroke:none;fill-rule:nonzero;fill:#ffffff;fill-opacity:1;" d="M 0 0.0585938 L 224.878906 0.0585938 L 224.878906 224.941406 L 0 224.941406 Z M 0 0.0585938 "/></g><g clip-rule="nonzero" clip-path="url(#d75a6eb337)"><path style=" stroke:none;fill-rule:nonzero;fill:#000000;fill-opacity:1;" d="M 203.871094 112.855469 C 203.871094 114.34375 203.835938 115.835938 203.761719 117.324219 C 203.6875 118.8125 203.578125 120.296875 203.433594 121.78125 C 203.285156 123.265625 203.101562 124.742188 202.882812 126.21875 C 202.667969 127.691406 202.410156 129.160156 202.121094 130.621094 C 201.828125 132.085938 201.503906 133.539062 201.140625 134.984375 C 200.777344 136.429688 200.382812 137.867188 199.949219 139.292969 C 199.515625 140.71875 199.046875 142.132812 198.546875 143.535156 C 198.042969 144.941406 197.507812 146.332031 196.9375 147.707031 C 196.367188 149.085938 195.761719 150.445312 195.125 151.792969 C 194.488281 153.140625 193.820312 154.472656 193.117188 155.789062 C 192.414062 157.101562 191.679688 158.398438 190.914062 159.675781 C 190.148438 160.957031 189.347656 162.214844 188.519531 163.453125 C 187.691406 164.691406 186.835938 165.910156 185.949219 167.109375 C 185.058594 168.304688 184.144531 169.480469 183.195312 170.632812 C 182.25 171.785156 181.277344 172.914062 180.277344 174.015625 C 179.277344 175.121094 178.25 176.199219 177.195312 177.253906 C 176.140625 178.308594 175.0625 179.335938 173.957031 180.335938 C 172.851562 181.339844 171.726562 182.3125 170.574219 183.257812 C 169.421875 184.203125 168.246094 185.121094 167.046875 186.007812 C 165.851562 186.894531 164.632812 187.753906 163.394531 188.582031 C 162.152344 189.410156 160.894531 190.207031 159.617188 190.972656 C 158.339844 191.738281 157.042969 192.472656 155.726562 193.175781 C 154.414062 193.878906 153.082031 194.550781 151.734375 195.1875 C 150.386719 195.824219 149.023438 196.425781 147.648438 196.996094 C 146.269531 197.566406 144.878906 198.105469 143.476562 198.605469 C 142.074219 199.109375 140.660156 199.578125 139.230469 200.007812 C 137.804688 200.441406 136.371094 200.839844 134.925781 201.199219 C 133.476562 201.5625 132.023438 201.890625 130.5625 202.179688 C 129.101562 202.472656 127.632812 202.726562 126.15625 202.945312 C 124.683594 203.164062 123.203125 203.347656 121.722656 203.492188 C 120.238281 203.636719 118.75 203.746094 117.261719 203.820312 C 115.773438 203.894531 114.285156 203.929688 112.792969 203.929688 C 111.304688 203.929688 109.8125 203.894531 108.324219 203.820312 C 106.835938 203.746094 105.351562 203.636719 103.867188 203.492188 C 102.382812 203.347656 100.90625 203.164062 99.429688 202.945312 C 97.957031 202.726562 96.488281 202.472656 95.027344 202.179688 C 93.5625 201.890625 92.109375 201.5625 90.664062 201.203125 C 89.21875 200.839844 87.78125 200.441406 86.355469 200.007812 C 84.929688 199.578125 83.515625 199.109375 82.113281 198.605469 C 80.707031 198.105469 79.316406 197.566406 77.941406 196.996094 C 76.5625 196.425781 75.203125 195.824219 73.855469 195.1875 C 72.507812 194.550781 71.175781 193.878906 69.859375 193.175781 C 68.546875 192.472656 67.25 191.738281 65.972656 190.972656 C 64.691406 190.207031 63.433594 189.410156 62.195312 188.582031 C 60.957031 187.753906 59.738281 186.894531 58.539062 186.007812 C 57.34375 185.121094 56.167969 184.203125 55.015625 183.257812 C 53.863281 182.3125 52.734375 181.339844 51.632812 180.335938 C 50.527344 179.335938 49.449219 178.308594 48.394531 177.253906 C 47.339844 176.199219 46.3125 175.121094 45.3125 174.015625 C 44.308594 172.914062 43.335938 171.785156 42.390625 170.632812 C 41.445312 169.480469 40.527344 168.304688 39.640625 167.109375 C 38.753906 165.910156 37.894531 164.691406 37.066406 163.453125 C 36.238281 162.214844 35.441406 160.957031 34.675781 159.675781 C 33.910156 158.398438 33.175781 157.101562 32.472656 155.789062 C 31.769531 154.472656 31.097656 153.140625 30.460938 151.792969 C 29.824219 150.445312 29.222656 149.085938 28.652344 147.707031 C 28.082031 146.332031 27.542969 144.941406 27.042969 143.535156 C 26.539062 142.132812 26.070312 140.71875 25.640625 139.292969 C 25.207031 137.867188 24.808594 136.429688 24.445312 134.984375 C 24.085938 133.539062 23.757812 132.085938 23.46875 130.621094 C 23.175781 129.160156 22.921875 127.691406 22.703125 126.21875 C 22.484375 124.742188 22.300781 123.265625 22.15625 121.78125 C 22.011719 120.296875 21.902344 118.8125 21.828125 117.324219 C 21.753906 115.835938 21.71875 114.34375 21.71875 112.855469 C 21.71875 111.363281 21.753906 109.875 21.828125 108.386719 C 21.902344 106.898438 22.011719 105.410156 22.15625 103.925781 C 22.300781 102.445312 22.484375 100.964844 22.703125 99.492188 C 22.921875 98.015625 23.175781 96.546875 23.46875 95.085938 C 23.757812 93.625 24.085938 92.171875 24.449219 90.722656 C 24.808594 89.277344 25.207031 87.84375 25.640625 86.417969 C 26.070312 84.988281 26.539062 83.574219 27.042969 82.171875 C 27.542969 80.769531 28.082031 79.378906 28.652344 78 C 29.222656 76.625 29.824219 75.261719 30.460938 73.914062 C 31.097656 72.566406 31.769531 71.234375 32.472656 69.921875 C 33.175781 68.605469 33.910156 67.308594 34.675781 66.03125 C 35.441406 64.753906 36.238281 63.496094 37.066406 62.253906 C 37.894531 61.015625 38.753906 59.796875 39.640625 58.601562 C 40.527344 57.402344 41.445312 56.226562 42.390625 55.074219 C 43.335938 53.921875 44.308594 52.796875 45.3125 51.691406 C 46.3125 50.585938 47.339844 49.507812 48.394531 48.453125 C 49.449219 47.398438 50.527344 46.371094 51.632812 45.371094 C 52.734375 44.371094 53.863281 43.398438 55.015625 42.453125 C 56.167969 41.503906 57.34375 40.589844 58.539062 39.699219 C 59.738281 38.8125 60.957031 37.957031 62.195312 37.128906 C 63.433594 36.300781 64.691406 35.5 65.972656 34.734375 C 67.25 33.96875 68.546875 33.234375 69.859375 32.53125 C 71.175781 31.828125 72.507812 31.160156 73.855469 30.523438 C 75.203125 29.886719 76.5625 29.28125 77.941406 28.710938 C 79.316406 28.140625 80.707031 27.605469 82.113281 27.101562 C 83.515625 26.601562 84.929688 26.132812 86.355469 25.699219 C 87.78125 25.265625 89.21875 24.871094 90.664062 24.507812 C 92.109375 24.144531 93.5625 23.820312 95.027344 23.527344 C 96.488281 23.238281 97.957031 22.980469 99.429688 22.761719 C 100.90625 22.542969 102.382812 22.363281 103.867188 22.214844 C 105.351562 22.070312 106.835938 21.960938 108.324219 21.886719 C 109.8125 21.8125 111.304688 21.777344 112.792969 21.777344 C 114.285156 21.777344 115.773438 21.8125 117.261719 21.886719 C 118.75 21.960938 120.238281 22.070312 121.722656 22.214844 C 123.203125 22.363281 124.683594 22.542969 126.15625 22.761719 C 127.632812 22.980469 129.101562 23.238281 130.5625 23.527344 C 132.023438 23.820312 133.476562 24.144531 134.925781 24.507812 C 136.371094 24.871094 137.804688 25.265625 139.230469 25.699219 C 140.660156 26.132812 142.074219 26.601562 143.476562 27.101562 C 144.878906 27.605469 146.269531 28.140625 147.648438 28.710938 C 149.023438 29.28125 150.386719 29.886719 151.734375 30.523438 C 153.082031 31.160156 154.414062 31.828125 155.726562 32.53125 C 157.042969 33.234375 158.339844 33.96875 159.617188 34.734375 C 160.894531 35.5 162.152344 36.300781 163.394531 37.128906 C 164.632812 37.957031 165.851562 38.8125 167.046875 39.699219 C 168.246094 40.589844 169.421875 41.503906 170.574219 42.453125 C 171.726562 43.398438 172.851562 44.371094 173.957031 45.371094 C 175.0625 46.371094 176.140625 47.398438 177.195312 48.453125 C 178.25 49.507812 179.277344 50.585938 180.277344 51.691406 C 181.277344 52.796875 182.25 53.921875 183.195312 55.074219 C 184.144531 56.226562 185.058594 57.402344 185.949219 58.601562 C 186.835938 59.796875 187.695312 61.015625 188.519531 62.253906 C 189.347656 63.496094 190.148438 64.753906 190.914062 66.03125 C 191.679688 67.308594 192.414062 68.605469 193.117188 69.921875 C 193.820312 71.234375 194.488281 72.566406 195.125 73.914062 C 195.761719 75.261719 196.367188 76.625 196.9375 78 C 197.507812 79.378906 198.042969 80.769531 198.546875 82.171875 C 199.046875 83.574219 199.515625 84.988281 199.949219 86.417969 C 200.382812 87.84375 200.777344 89.277344 201.140625 90.722656 C 201.503906 92.171875 201.828125 93.625 202.121094 95.085938 C 202.410156 96.546875 202.667969 98.015625 202.886719 99.492188 C 203.105469 100.964844 203.285156 102.445312 203.433594 103.925781 C 203.578125 105.410156 203.6875 106.898438 203.761719 108.386719 C 203.835938 109.875 203.871094 111.363281 203.871094 112.855469 Z M 203.871094 112.855469 "/></g><g clip-rule="nonzero" clip-path="url(#a2c61621a4)"><path style=" stroke:none;fill-rule:nonzero;fill:#ffffff;fill-opacity:1;" d="M 133.5 64.195312 C 131.109375 56.027344 129.410156 47.757812 134.074219 38.546875 C 134.695312 38.5 139.792969 38.597656 139.976562 38.617188 C 141.066406 38.71875 142.164062 38.871094 143.238281 39.070312 C 163.5625 42.816406 180.203125 62.730469 183.054688 73.558594 C 183.980469 77.109375 184.097656 78.953125 184.351562 81.855469 C 185.367188 93.960938 177.144531 114.535156 163.96875 120.605469 C 170.835938 114.984375 182.355469 85.625 148.714844 68.726562 C 139.917969 64.304688 133.5625 63.050781 133.5 64.195312 Z M 133.5 64.195312 "/></g><g clip-rule="nonzero" clip-path="url(#9726fe3ebd)"><path style=" stroke:none;fill-rule:evenodd;fill:#ffffff;fill-opacity:1;" d="M 108.664062 38.730469 L 133.988281 38.640625 C 133.070312 53.78125 133.894531 140.859375 133.894531 140.859375 C 133.714844 155.171875 127.566406 165.816406 120.132812 172.878906 C 119.492188 173.523438 118.847656 174.164062 118.113281 174.714844 C 108.570312 182.789062 99.210938 186.554688 86.367188 186.460938 C 73.703125 186.277344 64.160156 181.507812 56.085938 174.53125 C 50.03125 169.304688 45.167969 162.511719 42.414062 153.152344 C 36.449219 132.601562 44.15625 112.597656 61.226562 100.945312 C 61.5 100.667969 61.867188 100.390625 62.234375 100.207031 C 70.035156 94.796875 82.144531 91.582031 93.433594 93.417969 L 93.433594 119.296875 C 85.632812 117.277344 78.660156 119.019531 73.519531 123.332031 C 73.429688 123.332031 73.429688 123.425781 73.335938 123.515625 C 68.382812 127.734375 65.535156 133.976562 65.90625 141.039062 C 66.820312 153.703125 77.28125 161.59375 88.660156 161.046875 C 88.660156 161.046875 88.753906 161.046875 88.753906 161.046875 C 99.761719 159.941406 108.847656 150.953125 108.570312 138.839844 Z M 108.664062 38.730469 "/></g><g clip-rule="nonzero" clip-path="url(#9a4d1d0537)"><path style="fill:none;stroke-width:0.17;stroke-linecap:round;stroke-linejoin:miter;stroke:#000000;stroke-opacity:1;stroke-miterlimit:1.5;" d="M 21545.700678 20747.49927 L 21573.299686 20747.401355 C 21572.299259 20763.902012 21573.197515 20858.802073 21573.197515 20858.802073 C 21573.001687 20874.400217 21566.300956 20886.00091 21558.199627 20893.697811 C 21557.501457 20894.400238 21556.79903 20895.098409 21555.998688 20895.698665 C 21545.598507 20904.498163 21535.39841 20908.602042 21521.400949 20908.499871 C 21507.599317 20908.299785 21497.199135 20903.101823 21488.399636 20895.498579 C 21481.801077 20889.802532 21476.500943 20882.399374 21473.499663 20872.199278 C 21466.999017 20849.802489 21475.398345 20828.001699 21494.002026 20815.302664 C 21494.300026 20815.000407 21494.700197 20814.698151 21495.100367 20814.498065 C 21503.601867 20808.601933 21516.798986 20805.098311 21529.102107 20807.099164 L 21529.102107 20835.302686 C 21520.600608 20833.101747 21513.001621 20835.000429 21507.399231 20839.700307 C 21507.301317 20839.700307 21507.301317 20839.802478 21507.199146 20839.900392 C 21501.801098 20844.498098 21498.697647 20851.301 21499.102075 20858.997901 C 21500.098244 20872.799534 21511.498853 20881.398947 21523.899888 20880.802948 C 21523.899888 20880.802948 21524.002059 20880.802948 21524.002059 20880.802948 C 21535.998666 20879.598179 21545.900763 20869.802511 21545.598507 20856.601134 Z M 21545.700678 20747.49927 " transform="matrix(0.917577,0,0,0.917577,-19661.178028,-18998.700269)"/></g></g></svg>