<svg xmlns="http://www.w3.org/2000/svg" xmlns:xlink="http://www.w3.org/1999/xlink" width="300" zoomAndPan="magnify" viewBox="0 0 224.87999 225" height="300" preserveAspectRatio="xMidYMid meet" version="1.2"><defs><clipPath id="02744a2e1b"><path d="M 0 0.0585938 L 224.761719 0.0585938 L 224.761719 224.9375 L 0 224.9375 Z M 0 0.0585938 "/></clipPath><clipPath id="ff12ea225d"><path d="M 21.71875 22.546875 L 203.121094 22.546875 L 203.121094 203.953125 L 21.71875 203.953125 Z M 21.71875 22.546875 "/></clipPath></defs><g id="f7c8649fd0"><g clip-rule="nonzero" clip-path="url(#02744a2e1b)"><path style=" stroke:none;fill-rule:nonzero;fill:#ffffff;fill-opacity:1;" d="M 0 0.0585938 L 224.878906 0.0585938 L 224.878906 224.941406 L 0 224.941406 Z M 0 0.0585938 "/><path style=" stroke:none;fill-rule:nonzero;fill:#ffffff;fill-opacity:1;" d="M 0 0.0585938 L 224.878906 0.0585938 L 224.878906 224.941406 L 0 224.941406 Z M 0 0.0585938 "/></g><g clip-rule="nonzero" clip-path="url(#ff12ea225d)"><path style=" stroke:none;fill-rule:nonzero;fill:#070605;fill-opacity:1;" d="M 161.078125 166.140625 L 63.765625 166.140625 C 54.859375 166.140625 47.613281 158.894531 47.613281 149.992188 L 47.613281 85.109375 C 47.613281 76.210938 54.859375 68.964844 63.765625 68.964844 L 88.789062 68.964844 L 91.886719 64.320312 C 93.445312 61.984375 96.488281 60.359375 99.289062 60.359375 L 125.550781 60.359375 C 128.3125 60.359375 131.421875 62.027344 132.949219 64.320312 L 136.042969 68.964844 L 161.078125 68.964844 C 169.980469 68.964844 177.226562 76.210938 177.226562 85.109375 L 177.226562 149.992188 C 177.226562 158.894531 169.980469 166.140625 161.078125 166.140625 Z M 112.417969 22.546875 C 62.328125 22.546875 21.71875 63.15625 21.71875 113.25 C 21.71875 163.34375 62.328125 203.953125 112.417969 203.953125 C 162.511719 203.953125 203.121094 163.34375 203.121094 113.25 C 203.121094 63.15625 162.511719 22.546875 112.417969 22.546875 "/></g><path style=" stroke:none;fill-rule:nonzero;fill:#070605;fill-opacity:1;" d="M 112.417969 152.753906 C 93.007812 152.753906 77.214844 136.964844 77.214844 117.554688 C 77.214844 98.144531 93.007812 82.351562 112.417969 82.351562 C 131.832031 82.351562 147.625 98.144531 147.625 117.554688 C 147.625 136.964844 131.832031 152.753906 112.417969 152.753906 Z M 70.472656 96.703125 C 66.6875 96.703125 63.621094 93.632812 63.621094 89.851562 C 63.621094 86.066406 66.6875 82.996094 70.472656 82.996094 C 74.253906 82.996094 77.324219 86.066406 77.324219 89.851562 C 77.324219 93.632812 74.253906 96.703125 70.472656 96.703125 Z M 161.078125 76.929688 L 131.785156 76.929688 L 126.320312 68.734375 C 126.195312 68.597656 125.730469 68.347656 125.5 68.320312 L 99.289062 68.320312 C 99.105469 68.347656 98.636719 68.597656 98.484375 68.773438 L 93.054688 76.929688 L 63.765625 76.929688 C 59.25 76.929688 55.578125 80.597656 55.578125 85.109375 L 55.578125 149.992188 C 55.578125 154.503906 59.25 158.175781 63.765625 158.175781 L 161.078125 158.175781 C 165.59375 158.175781 169.261719 154.503906 169.261719 149.992188 L 169.261719 85.109375 C 169.261719 80.597656 165.59375 76.929688 161.078125 76.929688 "/><path style=" stroke:none;fill-rule:nonzero;fill:#070605;fill-opacity:1;" d="M 112.417969 135.550781 C 102.496094 135.550781 94.417969 127.476562 94.417969 117.554688 C 94.417969 107.628906 102.496094 99.554688 112.417969 99.554688 C 122.34375 99.554688 130.417969 107.628906 130.417969 117.554688 C 130.417969 127.476562 122.34375 135.550781 112.417969 135.550781 Z M 112.417969 90.316406 C 97.398438 90.316406 85.179688 102.535156 85.179688 117.554688 C 85.179688 132.574219 97.398438 144.792969 112.417969 144.792969 C 127.441406 144.792969 139.664062 132.574219 139.664062 117.554688 C 139.664062 102.535156 127.441406 90.316406 112.417969 90.316406 "/></g></svg>