<svg xmlns="http://www.w3.org/2000/svg" xmlns:xlink="http://www.w3.org/1999/xlink" width="300" zoomAndPan="magnify" viewBox="0 0 224.87999 225" height="300" preserveAspectRatio="xMidYMid meet" version="1.2"><defs><clipPath id="c73bb60152"><path d="M 0 0.0585938 L 224.761719 0.0585938 L 224.761719 224.9375 L 0 224.9375 Z M 0 0.0585938 "/></clipPath><clipPath id="21b7948992"><path d="M 20.949219 21.007812 L 203.851562 21.007812 L 203.851562 203.910156 L 20.949219 203.910156 Z M 20.949219 21.007812 "/></clipPath></defs><g id="081f21d1fa"><g clip-rule="nonzero" clip-path="url(#c73bb60152)"><path style=" stroke:none;fill-rule:nonzero;fill:#ffffff;fill-opacity:1;" d="M 0 0.0585938 L 224.878906 0.0585938 L 224.878906 224.941406 L 0 224.941406 Z M 0 0.0585938 "/><path style=" stroke:none;fill-rule:nonzero;fill:#ffffff;fill-opacity:1;" d="M 0 0.0585938 L 224.878906 0.0585938 L 224.878906 224.941406 L 0 224.941406 Z M 0 0.0585938 "/></g><g clip-rule="nonzero" clip-path="url(#21b7948992)"><path style=" stroke:none;fill-rule:nonzero;fill:#000000;fill-opacity:1;" d="M 112.398438 21.007812 C 61.882812 21.007812 20.949219 61.941406 20.949219 112.457031 C 20.949219 162.976562 61.882812 203.910156 112.398438 203.910156 C 162.914062 203.910156 203.851562 162.976562 203.851562 112.457031 C 203.769531 61.941406 162.835938 21.007812 112.398438 21.007812 Z M 165.050781 138.035156 C 164.023438 144.765625 158.164062 149.671875 151.355469 149.671875 L 73.363281 149.671875 C 66.554688 149.671875 60.695312 144.765625 59.667969 138.035156 C 58.714844 131.777344 57.765625 123.070312 57.6875 112.378906 C 57.765625 101.691406 58.636719 93.058594 59.667969 86.726562 C 60.695312 79.996094 66.554688 75.085938 73.363281 75.085938 L 151.355469 75.085938 C 158.164062 75.085938 164.023438 79.996094 165.050781 86.726562 C 166.003906 92.980469 166.953125 101.691406 167.03125 112.378906 C 166.953125 123.070312 166.003906 131.777344 165.050781 138.035156 Z M 165.050781 138.035156 "/></g><path style=" stroke:none;fill-rule:nonzero;fill:#000000;fill-opacity:1;" d="M 100.839844 97.574219 L 100.839844 127.265625 L 128.472656 112.457031 Z M 100.839844 97.574219 "/></g></svg>