<svg xmlns="http://www.w3.org/2000/svg" xmlns:xlink="http://www.w3.org/1999/xlink" width="300" zoomAndPan="magnify" viewBox="0 0 224.87999 225" height="300" preserveAspectRatio="xMidYMid meet" version="1.2"><defs><clipPath id="affe5891a4"><path d="M 0 0.0585938 L 224.761719 0.0585938 L 224.761719 224.9375 L 0 224.9375 Z M 0 0.0585938 "/></clipPath><clipPath id="cab5efb221"><path d="M 17.289062 17.175781 L 207.6875 17.175781 L 207.6875 207.574219 L 17.289062 207.574219 Z M 17.289062 17.175781 "/></clipPath></defs><g id="8c9c54d337"><g clip-rule="nonzero" clip-path="url(#affe5891a4)"><path style=" stroke:none;fill-rule:nonzero;fill:#ffffff;fill-opacity:1;" d="M 0 0.0585938 L 224.878906 0.0585938 L 224.878906 224.941406 L 0 224.941406 Z M 0 0.0585938 "/><path style=" stroke:none;fill-rule:nonzero;fill:#ffffff;fill-opacity:1;" d="M 0 0.0585938 L 224.878906 0.0585938 L 224.878906 224.941406 L 0 224.941406 Z M 0 0.0585938 "/></g><g clip-rule="nonzero" clip-path="url(#cab5efb221)"><path style=" stroke:none;fill-rule:nonzero;fill:#000000;fill-opacity:1;" d="M 203.726562 90.296875 C 203.757812 90.167969 203.777344 90.035156 203.785156 89.902344 L 207.523438 63.472656 C 207.566406 63.265625 207.59375 63.046875 207.59375 62.824219 C 207.59375 61.125 206.214844 59.75 204.515625 59.75 L 180.269531 59.75 C 180.265625 59.75 180.261719 59.75 180.257812 59.75 C 180.25 59.75 180.246094 59.75 180.242188 59.75 L 156.027344 59.75 C 156.019531 59.75 156.007812 59.75 156 59.75 C 155.988281 59.75 155.980469 59.75 155.96875 59.75 L 131.785156 59.75 C 131.769531 59.75 131.753906 59.75 131.742188 59.75 C 131.726562 59.75 131.710938 59.75 131.699219 59.75 L 107.539062 59.75 C 107.523438 59.75 107.503906 59.742188 107.484375 59.742188 C 107.464844 59.742188 107.445312 59.75 107.425781 59.75 L 83.292969 59.75 C 83.269531 59.75 83.246094 59.742188 83.226562 59.742188 C 83.203125 59.742188 83.179688 59.75 83.160156 59.75 L 62.230469 59.75 L 49.410156 26.070312 C 49.042969 25.09375 48.230469 24.421875 47.296875 24.171875 L 21.542969 17.601562 C 19.902344 17.183594 18.226562 18.175781 17.808594 19.820312 C 17.386719 21.464844 18.382812 23.136719 20.03125 23.550781 L 44.230469 29.726562 L 61.652344 75.492188 L 77.59375 117.371094 C 77.632812 117.503906 77.683594 117.632812 77.742188 117.761719 L 80.273438 124.414062 C 80.316406 124.550781 80.371094 124.683594 80.425781 124.816406 L 87.472656 143.324219 L 80.285156 150.195312 C 74.042969 156.160156 70.007812 161.851562 68.195312 166.699219 C 67.023438 169.828125 66.738281 172.699219 67.339844 175.179688 C 68.003906 177.921875 69.667969 180.101562 72.328125 181.566406 C 73.214844 182.050781 74.207031 182.457031 75.308594 182.765625 C 73 185.394531 71.597656 188.835938 71.597656 192.605469 C 71.597656 196.632812 73.199219 200.296875 75.808594 202.992188 L 75.984375 203.1875 C 78.699219 205.894531 82.445312 207.566406 86.582031 207.566406 C 90.71875 207.566406 94.46875 205.890625 97.179688 203.1875 L 97.179688 203.171875 C 99.886719 200.464844 101.566406 196.722656 101.566406 192.605469 C 101.566406 189.191406 100.414062 186.046875 98.476562 183.527344 L 162.515625 183.527344 C 160.703125 186.003906 159.625 189.050781 159.625 192.347656 C 159.625 196.378906 161.230469 200.039062 163.839844 202.734375 L 164.015625 202.929688 C 166.726562 205.636719 170.472656 207.3125 174.609375 207.3125 C 178.746094 207.3125 182.5 205.632812 185.207031 202.929688 L 185.207031 202.914062 C 187.914062 200.207031 189.59375 196.46875 189.59375 192.347656 C 189.59375 189.054688 188.519531 186.003906 186.707031 183.527344 L 192.417969 183.527344 C 194.117188 183.527344 195.5 182.152344 195.5 180.453125 C 195.5 178.757812 194.117188 177.378906 192.417969 177.378906 C 192.417969 177.378906 81.441406 177.378906 81.441406 177.378906 C 78.738281 177.378906 76.691406 176.957031 75.296875 176.1875 C 74.21875 175.59375 73.558594 174.757812 73.3125 173.734375 C 73 172.453125 73.210938 170.789062 73.945312 168.828125 C 75.441406 164.820312 78.976562 159.925781 84.542969 154.605469 L 92.425781 147.070312 L 107.582031 145.558594 C 107.722656 145.554688 107.859375 145.539062 107.996094 145.515625 L 131.847656 143.140625 C 131.984375 143.136719 132.117188 143.121094 132.25 143.101562 L 156.101562 140.726562 C 156.242188 140.722656 156.375 140.707031 156.503906 140.6875 L 180.359375 138.3125 C 180.496094 138.308594 180.628906 138.292969 180.757812 138.273438 L 194.652344 136.890625 C 196.078125 136.804688 197.296875 135.722656 197.503906 134.253906 L 199.925781 117.128906 C 199.953125 117 199.972656 116.867188 199.980469 116.730469 Z M 92.835938 198.84375 C 91.242188 200.433594 89.027344 201.421875 86.589844 201.421875 C 84.152344 201.421875 81.945312 200.433594 80.347656 198.84375 L 80.203125 198.710938 C 78.691406 197.128906 77.761719 194.976562 77.761719 192.605469 C 77.761719 190.164062 78.746094 187.957031 80.347656 186.371094 C 81.941406 184.777344 84.152344 183.789062 86.589844 183.789062 C 89.027344 183.789062 91.238281 184.777344 92.835938 186.371094 L 92.980469 186.503906 C 94.492188 188.085938 95.421875 190.234375 95.421875 192.605469 C 95.421875 195.050781 94.429688 197.257812 92.835938 198.84375 Z M 180.855469 186.113281 L 181 186.246094 C 182.511719 187.828125 183.441406 189.976562 183.441406 192.347656 C 183.441406 194.789062 182.457031 196.996094 180.855469 198.582031 C 179.261719 200.175781 177.046875 201.164062 174.609375 201.164062 C 172.171875 201.164062 169.964844 200.175781 168.367188 198.582031 L 168.222656 198.449219 C 166.710938 196.867188 165.78125 194.714844 165.78125 192.34375 C 165.78125 189.902344 166.765625 187.695312 168.367188 186.109375 C 169.960938 184.515625 172.171875 183.527344 174.609375 183.527344 C 177.046875 183.535156 179.257812 184.523438 180.855469 186.113281 Z M 93.101562 140.859375 L 86.304688 123.003906 L 86.304688 119.566406 L 104.410156 119.566406 L 104.410156 139.734375 Z M 152.917969 86.582031 L 134.816406 86.582031 L 134.816406 65.886719 L 152.917969 65.886719 C 152.917969 69.960938 152.917969 77.671875 152.917969 86.582031 Z M 159.078125 65.890625 L 177.175781 65.890625 L 177.175781 86.585938 L 159.074219 86.585938 L 159.074219 65.890625 Z M 134.820312 92.730469 L 152.921875 92.730469 C 152.921875 99.601562 152.921875 106.824219 152.921875 113.421875 L 134.820312 113.421875 Z M 128.667969 113.417969 L 110.566406 113.417969 L 110.566406 92.726562 L 128.667969 92.726562 Z M 128.667969 86.582031 L 110.566406 86.582031 L 110.566406 65.886719 L 128.667969 65.886719 Z M 104.410156 86.582031 L 86.304688 86.582031 L 86.304688 65.886719 L 104.410156 65.886719 Z M 104.410156 92.730469 L 104.410156 113.421875 L 86.304688 113.421875 L 86.304688 92.730469 Z M 80.152344 106.828125 L 74.78125 92.726562 L 80.152344 92.726562 Z M 110.5625 119.5625 L 128.660156 119.5625 L 128.660156 137.316406 L 110.5625 139.117188 Z M 134.820312 119.5625 L 152.921875 119.5625 C 152.921875 126.230469 152.921875 131.765625 152.921875 134.894531 L 134.820312 136.703125 Z M 159.078125 119.5625 L 177.175781 119.5625 L 177.175781 132.480469 L 159.074219 134.289062 L 159.074219 119.5625 Z M 159.078125 113.417969 L 159.078125 92.726562 L 177.175781 92.726562 L 177.175781 113.417969 Z M 183.335938 92.730469 L 197.183594 92.730469 L 194.253906 113.421875 L 183.335938 113.421875 Z M 198.050781 86.582031 L 183.332031 86.582031 L 183.332031 65.886719 L 200.976562 65.886719 Z M 80.152344 65.890625 L 80.152344 86.585938 L 72.445312 86.585938 L 67.398438 73.339844 L 64.566406 65.898438 L 80.152344 65.898438 Z M 183.335938 131.867188 L 183.335938 119.5625 L 193.390625 119.5625 L 191.765625 131.027344 Z M 183.335938 131.867188 "/></g></g></svg>